# xmcd
#
# Track frame offsets: 
#        150
#        20467
#        54603
#        73320
#        89459
#        111073
#        141750
#        168562
#        188740
#        211989
#        229529
#        256934
#        275348
#        301191
#        321181
#
# Disc length: 4535 seconds
#
# Revision: 1
# Processed by: cddbd v1.5.2PL0 Copyright (c) Steve Scherf et al.
# Submitted via: ExactAudioCopy v1.0b3
#
DISCID=d211b50f
DTITLE=Various Artist - Time Blues Vol.1
DYEAR=2008
DGENRE=Blues
TTITLE0=Freddie King - Help Me Through The Day
TTITLE1=Rondo's Blues Delux - Bflat Minor Blues
TTITLE2=Bill Perry - I Can't See The Light Of Day
TTITLE3=Kerry Kearney Band - Hair Hang Down
TTITLE4=Lucky Peterson - Double Dealing
TTITLE5=Dick Heckstall-Smith and Peter Green - Cruel Contradition
TTITLE6=Mick Morgan and The Crawl - Gold Wind
TTITLE7=Rick Vito - One Short Life
TTITLE8=The Beat Daddys - Someboy's Waiting
TTITLE9=Tony Sarno - Screamin' Blues Demon
TTITLE10=Mark May And The Agitators - Took My By Surprise
TTITLE11=Roy Roberts - Comin Thru The Back Door
TTITLE12=The Maynard Brothers Band - Call The Warden
TTITLE13=Popa Chubby Band - Angel On My Shoulder
TTITLE14=Swamp Mama Jonson - Cradle Robbin Mambo
EXTD=
EXTT0=
EXTT1=
EXTT2=
EXTT3=
EXTT4=
EXTT5=
EXTT6=
EXTT7=
EXTT8=
EXTT9=
EXTT10=
EXTT11=
EXTT12=
EXTT13=
EXTT14=
PLAYORDER=
